<?xml version="1.0" encoding="UTF-8"?>
<svg id="_レイヤー_2" data-name="レイヤー_2" xmlns="http://www.w3.org/2000/svg" viewBox="0 0 194.52 194.52">
  <g id="_要素" data-name="要素">
    <g>
      <path d="M190.85,194.52H3.68c-2.03,0-3.68-1.65-3.68-3.68V3.68C0,1.65,1.65,0,3.68,0h187.17c2.03,0,3.68,1.65,3.68,3.68v187.17c0,2.03-1.65,3.68-3.68,3.68ZM3.68.24C1.78.24.24,1.78.24,3.68v187.17c0,1.9,1.54,3.44,3.44,3.44h187.17c1.9,0,3.44-1.54,3.44-3.44V3.68c0-1.9-1.54-3.44-3.44-3.44H3.68Z"/>
      <g>
        <path d="M15.82,35.38h3.98c3.75,0,5.91,1.2,5.91,4.5s-2.11,4.73-5.82,4.73h-3.23v7.27h-.84v-16.5ZM19.59,43.86c3.52,0,5.2-1.14,5.2-3.98s-1.73-3.75-5.3-3.75h-2.84v7.73h2.93Z"/>
        <path d="M33.95,35.38h4.57c3.25,0,5.32,1.2,5.32,4.25s-2.07,4.48-5.32,4.48h-3.73v7.77h-.84v-16.5ZM38.22,43.38c3.02,0,4.7-1.2,4.7-3.75s-1.68-3.5-4.7-3.5h-3.43v7.25h3.43ZM38.29,43.86l.95-.09,4.84,8.11h-.98l-4.82-8.02Z"/>
        <path d="M50.78,43.59c0-5.2,2.8-8.5,6.7-8.5s6.7,3.3,6.7,8.5-2.8,8.59-6.7,8.59-6.7-3.39-6.7-8.59ZM63.31,43.59c0-4.73-2.34-7.7-5.82-7.7s-5.82,2.98-5.82,7.7,2.34,7.8,5.82,7.8,5.82-3.07,5.82-7.8Z"/>
        <path d="M72.64,35.38h.84v7.32h9.18v-7.32h.86v16.5h-.86v-8.43h-9.18v8.43h-.84v-16.5Z"/>
        <path d="M93.05,35.38h.84v16.5h-.84v-16.5Z"/>
        <path d="M103.43,35.38h4.32c3.3,0,5.36,1.27,5.36,4,0,1.75-.89,3.09-2.59,3.59v.11c2.18.34,3.64,1.7,3.64,4,0,3.14-2.36,4.8-6.11,4.8h-4.61v-16.5ZM107.25,42.7c3.59,0,5-1.23,5-3.27,0-2.43-1.66-3.32-4.84-3.32h-3.14v6.59h2.98ZM107.75,51.13c3.43,0,5.57-1.23,5.57-4,0-2.5-2.05-3.68-5.57-3.68h-3.48v7.68h3.48Z"/>
        <path d="M122.33,35.38h.84v16.5h-.84v-16.5Z"/>
        <path d="M136.28,36.13h-5.32v-.75h11.52v.75h-5.32v15.75h-.89v-15.75Z"/>
        <path d="M150.28,35.38h8.86v.75h-8.02v6.57h6.73v.75h-6.73v7.68h8.27v.75h-9.11v-16.5Z"/>
        <path d="M167.59,35.38h3.7c5.11,0,7.41,3.27,7.41,8.2s-2.3,8.3-7.39,8.3h-3.73v-16.5ZM171.18,51.13c4.68,0,6.64-3.2,6.64-7.55s-1.95-7.45-6.64-7.45h-2.75v15h2.75Z"/>
      </g>
      <g>
        <path d="M16.29,57.66h.17l1.4,2.31.36.62h.02c-.02-.31-.03-.6-.03-.89v-2.04h.16v3.17h-.17l-1.39-2.31-.36-.62h-.02c0,.3.02.57.02.87v2.06h-.15v-3.17Z"/>
        <path d="M19.97,59.68c0-.77.47-1.21,1.02-1.21s1.02.44,1.02,1.21-.47,1.2-1.02,1.2-1.02-.44-1.02-1.2ZM21.85,59.68c0-.63-.37-1.07-.86-1.07s-.86.44-.86,1.07.37,1.06.86,1.06.86-.43.86-1.06Z"/>
        <path d="M26.15,57.66h.14l1.13,3.17h-.18l-.66-1.9c-.13-.38-.24-.71-.36-1.1h-.02c-.12.4-.23.72-.37,1.1l-.67,1.9h-.16l1.13-3.17ZM25.51,59.56h1.41v.14h-1.41v-.14Z"/>
        <path d="M28.83,57.66h.16v3.17h-.16v-3.17Z"/>
        <path d="M32.65,57.66h.16v3.02h1.48v.14h-1.64v-3.17Z"/>
        <path d="M35.51,59.68c0-.75.48-1.21.99-1.21s.87.38.87,1.06c0,.05,0,.1,0,.16h-1.68c0,.61.35,1.05.89,1.05.26,0,.46-.08.63-.21l.07.13c-.17.1-.37.22-.71.22-.58,0-1.05-.45-1.05-1.2ZM37.22,59.54c0-.62-.28-.93-.72-.93s-.78.35-.82.93h1.54Z"/>
        <path d="M38.71,60.26c0-.51.47-.75,1.5-.87.01-.37-.08-.78-.56-.78-.33,0-.6.16-.75.28l-.08-.13c.14-.1.46-.3.84-.3.54,0,.71.4.71.87v1.49h-.13l-.02-.31h-.01c-.24.19-.52.36-.83.36-.36,0-.66-.19-.66-.62ZM40.21,60.35v-.82c-1,.11-1.34.34-1.34.73,0,.35.24.48.51.48s.52-.13.82-.39Z"/>
        <path d="M42.09,58.52h.13l.03.43h0c.15-.28.37-.49.65-.49.08,0,.14,0,.22.05l-.04.14c-.07-.03-.11-.04-.21-.04-.21,0-.46.16-.64.61v1.59h-.16v-2.3Z"/>
        <path d="M44.44,58.52h.13l.03.37h0c.24-.24.47-.42.79-.42.47,0,.69.28.69.88v1.48h-.16v-1.46c0-.51-.16-.75-.55-.75-.28,0-.49.15-.78.45v1.76h-.16v-2.3Z"/>
        <path d="M47.77,57.77c0-.1.06-.17.16-.17s.16.07.16.17c0,.11-.07.18-.16.18-.09,0-.16-.07-.16-.18ZM47.84,58.52h.16v2.3h-.16v-2.3Z"/>
        <path d="M49.78,58.52h.13l.03.37h0c.24-.24.48-.42.79-.42.47,0,.69.28.69.88v1.48h-.16v-1.46c0-.51-.16-.75-.55-.75-.28,0-.49.15-.78.45v1.76h-.16v-2.3Z"/>
        <path d="M52.98,61.3c0-.2.13-.41.35-.57v-.02c-.12-.07-.2-.19-.2-.37,0-.21.15-.35.25-.42v-.02c-.14-.13-.29-.35-.29-.63,0-.47.35-.81.79-.81.13,0,.24.03.3.06h.77v.14h-.55c.16.13.27.35.27.61,0,.46-.34.82-.79.82-.13,0-.28-.04-.39-.1-.1.08-.2.19-.2.35,0,.17.1.32.45.32h.51c.51,0,.74.16.74.51,0,.39-.41.77-1.06.77-.58,0-.94-.26-.94-.64ZM54.82,61.19c0-.27-.19-.38-.55-.38h-.52s-.15,0-.28-.04c-.23.15-.32.34-.32.51,0,.31.28.51.78.51.55,0,.89-.31.89-.61ZM54.5,59.28c0-.41-.28-.67-.63-.67s-.62.25-.62.67.29.67.62.67.63-.27.63-.67Z"/>
        <path d="M56.13,61.43c.21-.12.35-.32.35-.6l-.07-.26.16.21c-.04.07-.1.08-.15.08-.1,0-.18-.07-.18-.18s.09-.18.18-.18c.13,0,.21.12.21.3,0,.33-.19.59-.45.75l-.06-.12Z"/>
        <path d="M60.09,57.66h.17l1.4,2.31.36.62h.02c-.02-.31-.03-.6-.03-.89v-2.04h.16v3.17h-.17l-1.39-2.31-.36-.62h-.02c0,.3.02.57.02.87v2.06h-.15v-3.17Z"/>
        <path d="M63.78,59.68c0-.77.47-1.21,1.02-1.21s1.02.44,1.02,1.21-.47,1.2-1.02,1.2-1.02-.44-1.02-1.2ZM65.66,59.68c0-.63-.37-1.07-.86-1.07s-.86.44-.86,1.07.37,1.06.86,1.06.86-.43.86-1.06Z"/>
        <path d="M69.25,59.64v-1.98h.16v1.95c0,.87.42,1.12.88,1.12s.89-.26.89-1.12v-1.95h.16v1.98c0,.98-.54,1.24-1.05,1.24s-1.04-.26-1.04-1.24Z"/>
        <path d="M73.13,58.52h.13l.03.37h0c.24-.24.47-.42.79-.42.47,0,.69.28.69.88v1.48h-.16v-1.46c0-.51-.16-.75-.55-.75-.28,0-.49.15-.78.45v1.76h-.16v-2.3Z"/>
        <path d="M76.36,60.26c0-.51.47-.75,1.5-.87.01-.37-.08-.78-.56-.78-.33,0-.6.16-.75.28l-.08-.13c.14-.1.46-.3.84-.3.54,0,.71.4.71.87v1.49h-.13l-.02-.31h-.01c-.24.19-.52.36-.83.36-.36,0-.66-.19-.66-.62ZM77.86,60.35v-.82c-1,.11-1.34.34-1.34.73,0,.35.24.48.51.48s.52-.13.82-.39Z"/>
        <path d="M79.7,60v-1.48h.16v1.46c0,.51.16.75.55.75.28,0,.5-.15.78-.49v-1.72h.16v2.3h-.13l-.02-.39h0c-.23.27-.47.45-.79.45-.47,0-.69-.28-.69-.88Z"/>
        <path d="M83.18,60.21v-1.54h-.37v-.12l.37-.02.02-.67h.13v.67h.68v.14h-.68v1.57c0,.3.07.5.4.5.09,0,.21-.04.29-.07l.05.13c-.13.05-.28.09-.36.09-.43,0-.54-.27-.54-.67Z"/>
        <path d="M85.45,57.36h.16v1.54c.24-.25.48-.43.8-.43.47,0,.69.28.69.88v1.48h-.16v-1.46c0-.51-.16-.75-.55-.75-.28,0-.49.15-.78.45v1.76h-.16v-3.46Z"/>
        <path d="M88.63,59.68c0-.77.47-1.21,1.02-1.21s1.02.44,1.02,1.21-.47,1.2-1.02,1.2-1.02-.44-1.02-1.2ZM90.51,59.68c0-.63-.37-1.07-.86-1.07s-.86.44-.86,1.07.37,1.06.86,1.06.86-.43.86-1.06Z"/>
        <path d="M92.26,58.52h.13l.03.43h0c.15-.28.38-.49.65-.49.08,0,.14,0,.22.05l-.04.14c-.07-.03-.11-.04-.2-.04-.21,0-.46.16-.64.61v1.59h-.16v-2.3Z"/>
        <path d="M94.53,57.77c0-.1.07-.17.16-.17s.16.07.16.17c0,.11-.07.18-.16.18-.09,0-.16-.07-.16-.18ZM94.61,58.52h.16v2.3h-.16v-2.3Z"/>
        <path d="M96.21,60.74l1.4-2.07h-1.25v-.14h1.46v.09l-1.4,2.07h1.45v.14h-1.66v-.08Z"/>
        <path d="M99.13,59.68c0-.75.48-1.21.99-1.21s.87.38.87,1.06c0,.05,0,.1,0,.16h-1.68c0,.61.35,1.05.89,1.05.26,0,.46-.08.63-.21l.07.13c-.17.1-.37.22-.71.22-.58,0-1.05-.45-1.05-1.2ZM100.83,59.54c0-.62-.28-.93-.72-.93s-.78.35-.82.93h1.54Z"/>
        <path d="M102.29,59.68c0-.74.47-1.21,1.03-1.21.28,0,.47.1.71.29v-.43s-.01-.96-.01-.96h.16v3.46h-.13l-.02-.31h0c-.19.19-.45.36-.77.36-.58,0-.95-.42-.95-1.2ZM104.02,60.34v-1.41c-.25-.23-.46-.31-.7-.31-.48,0-.86.48-.86,1.07,0,.63.29,1.06.8,1.06.27,0,.51-.14.76-.4Z"/>
        <path d="M107.8,59.64v-1.98h.16v1.95c0,.87.42,1.12.88,1.12s.89-.26.89-1.12v-1.95h.16v1.98c0,.98-.54,1.24-1.05,1.24s-1.04-.26-1.04-1.24Z"/>
        <path d="M111.39,60.57l.1-.13c.19.17.41.3.75.3.38,0,.58-.22.58-.48,0-.3-.31-.44-.58-.53-.35-.13-.72-.26-.72-.65,0-.32.25-.6.72-.6.23,0,.47.1.64.24l-.09.12c-.15-.11-.31-.21-.55-.21-.38,0-.55.22-.55.44,0,.27.26.38.54.48.37.14.76.25.76.7,0,.34-.27.64-.75.64-.34,0-.63-.14-.84-.31Z"/>
        <path d="M114.28,59.68c0-.75.48-1.21.99-1.21s.87.38.87,1.06c0,.05,0,.1,0,.16h-1.68c0,.61.35,1.05.89,1.05.26,0,.46-.08.63-.21l.07.13c-.18.1-.37.22-.71.22-.58,0-1.05-.45-1.05-1.2ZM115.99,59.54c0-.62-.28-.93-.72-.93-.41,0-.78.35-.82.93h1.54Z"/>
        <path d="M117.42,61.43c.2-.12.35-.32.35-.6l-.07-.26.16.21c-.04.07-.1.08-.15.08-.1,0-.18-.07-.18-.18s.09-.18.18-.18c.13,0,.21.12.21.3,0,.33-.19.59-.45.75l-.06-.12Z"/>
        <path d="M121.38,57.66h.17l1.4,2.31.36.62h.02c-.02-.31-.03-.6-.03-.89v-2.04h.16v3.17h-.17l-1.39-2.31-.36-.62h-.02c0,.3.02.57.02.87v2.06h-.15v-3.17Z"/>
        <path d="M125.07,59.68c0-.77.47-1.21,1.02-1.21s1.02.44,1.02,1.21-.47,1.2-1.02,1.2-1.02-.44-1.02-1.2ZM126.95,59.68c0-.63-.37-1.07-.86-1.07s-.86.44-.86,1.07.37,1.06.86,1.06.86-.43.86-1.06Z"/>
        <path d="M130.55,57.66h.26l.68,1.91c.09.24.18.48.26.72h.02c.09-.24.17-.48.25-.72l.68-1.91h.26v3.17h-.16v-2.19c0-.25,0-.57.02-.83h-.02l-.24.7-.71,1.97h-.17l-.71-1.97-.25-.7h-.02c.01.26.02.58.02.83v2.19h-.15v-3.17Z"/>
        <path d="M134.68,57.77c0-.1.07-.17.16-.17s.16.07.16.17c0,.11-.07.18-.16.18-.09,0-.16-.07-.16-.18ZM134.75,58.52h.16v2.3h-.16v-2.3Z"/>
        <path d="M136.39,60.57l.1-.13c.19.17.41.3.75.3.38,0,.58-.22.58-.48,0-.3-.31-.44-.58-.53-.35-.13-.72-.26-.72-.65,0-.32.25-.6.72-.6.23,0,.48.1.64.24l-.09.12c-.15-.11-.31-.21-.55-.21-.38,0-.55.22-.55.44,0,.27.26.38.54.48.37.14.76.25.76.7,0,.34-.27.64-.75.64-.34,0-.63-.14-.84-.31Z"/>
        <path d="M139.49,58.52h.13l.03.43h0c.15-.28.38-.49.65-.49.08,0,.14,0,.22.05l-.04.14c-.07-.03-.11-.04-.2-.04-.21,0-.46.16-.64.61v1.59h-.16v-2.3Z"/>
        <path d="M141.63,59.68c0-.75.48-1.21.99-1.21s.87.38.87,1.06c0,.05,0,.1,0,.16h-1.68c0,.61.35,1.05.89,1.05.26,0,.46-.08.63-.21l.07.13c-.17.1-.37.22-.71.22-.58,0-1.05-.45-1.05-1.2ZM143.34,59.54c0-.62-.28-.93-.72-.93s-.78.35-.82.93h1.54Z"/>
        <path d="M145,58.52h.13l.03.3h0c.23-.18.5-.35.79-.35.62,0,.93.46.93,1.17,0,.78-.47,1.24-1.02,1.24-.22,0-.46-.1-.7-.29v1.29h-.16v-3.36ZM146.72,59.64c0-.58-.21-1.03-.77-1.03-.24,0-.49.14-.78.4v1.42c.27.23.53.31.72.31.49,0,.84-.45.84-1.09Z"/>
        <path d="M148.47,58.52h.13l.03.43h0c.15-.28.38-.49.65-.49.08,0,.14,0,.22.05l-.04.14c-.07-.03-.11-.04-.2-.04-.21,0-.46.16-.64.61v1.59h-.16v-2.3Z"/>
        <path d="M150.62,59.68c0-.75.48-1.21.99-1.21s.87.38.87,1.06c0,.05,0,.1,0,.16h-1.68c0,.61.35,1.05.89,1.05.26,0,.46-.08.63-.21l.07.13c-.18.1-.37.22-.71.22-.58,0-1.05-.45-1.05-1.2ZM152.32,59.54c0-.62-.28-.93-.72-.93-.41,0-.78.35-.82.93h1.54Z"/>
        <path d="M153.69,60.57l.1-.13c.19.17.41.3.75.3.38,0,.58-.22.58-.48,0-.3-.31-.44-.58-.53-.35-.13-.72-.26-.72-.65,0-.32.25-.6.72-.6.23,0,.48.1.64.24l-.09.12c-.15-.11-.31-.21-.55-.21-.38,0-.55.22-.55.44,0,.27.26.38.54.48.37.14.76.25.76.7,0,.34-.27.64-.75.64-.34,0-.63-.14-.84-.31Z"/>
        <path d="M156.58,59.68c0-.75.48-1.21.99-1.21s.87.38.87,1.06c0,.05,0,.1,0,.16h-1.68c0,.61.35,1.05.89,1.05.26,0,.46-.08.63-.21l.07.13c-.17.1-.37.22-.71.22-.58,0-1.05-.45-1.05-1.2ZM158.29,59.54c0-.62-.28-.93-.72-.93s-.78.35-.82.93h1.54Z"/>
        <path d="M159.95,58.52h.13l.03.37h0c.24-.24.48-.42.79-.42.47,0,.69.28.69.88v1.48h-.16v-1.46c0-.51-.16-.75-.55-.75-.28,0-.49.15-.78.45v1.76h-.16v-2.3Z"/>
        <path d="M163.4,60.21v-1.54h-.37v-.12l.37-.02.02-.67h.13v.67h.68v.14h-.68v1.57c0,.3.07.5.4.5.09,0,.21-.04.29-.07l.05.13c-.13.05-.28.09-.36.09-.43,0-.54-.27-.54-.67Z"/>
        <path d="M165.51,60.26c0-.51.47-.75,1.5-.87.01-.37-.08-.78-.56-.78-.33,0-.6.16-.75.28l-.08-.13c.14-.1.46-.3.84-.3.54,0,.71.4.71.87v1.49h-.13l-.02-.31h-.01c-.24.19-.52.36-.83.36-.36,0-.66-.19-.66-.62ZM167.01,60.35v-.82c-1,.11-1.34.34-1.34.73,0,.35.24.48.51.48s.52-.13.82-.39Z"/>
        <path d="M168.94,60.21v-1.54h-.37v-.12l.37-.02.02-.67h.14v.67h.68v.14h-.68v1.57c0,.3.06.5.4.5.09,0,.21-.04.29-.07l.05.13c-.14.05-.28.09-.36.09-.43,0-.54-.27-.54-.67Z"/>
        <path d="M171.14,57.77c0-.1.06-.17.16-.17s.16.07.16.17c0,.11-.07.18-.16.18-.09,0-.16-.07-.16-.18ZM171.21,58.52h.16v2.3h-.16v-2.3Z"/>
        <path d="M172.95,59.68c0-.77.47-1.21,1.02-1.21s1.02.44,1.02,1.21-.47,1.2-1.02,1.2-1.02-.44-1.02-1.2ZM174.83,59.68c0-.63-.37-1.07-.86-1.07s-.86.44-.86,1.07.37,1.06.86,1.06.86-.43.86-1.06Z"/>
        <path d="M176.58,58.52h.13l.03.37h0c.24-.24.48-.42.79-.42.47,0,.69.28.69.88v1.48h-.16v-1.46c0-.51-.16-.75-.55-.75-.28,0-.49.15-.78.45v1.76h-.16v-2.3Z"/>
      </g>
      <g>
        <path d="M20.71,117.6l-.65-2.07h-2.59l-.67,2.07h-.54l2.18-6.37h.68l2.18,6.37h-.58ZM18.64,111.73c-.22.78-.43,1.48-.67,2.22l-.38,1.2h2.34l-.38-1.2c-.25-.75-.46-1.45-.68-2.22l-.02-.07h-.15l-.06.07Z"/>
        <rect x="22.48" y="111.23" width=".55" height="6.37"/>
        <path d="M32.18,118.26v-2.02h-4.53v-.34h4.99v2.36h-.46ZM32.18,115.24v-4.82h.46v2.24h1.2v.36h-1.2v2.22h-.46ZM28.93,114.97c-1.1,0-1.81-.53-1.81-1.35s.71-1.35,1.81-1.35,1.81.53,1.81,1.35-.71,1.35-1.81,1.35ZM28.93,112.6c-.83,0-1.39.41-1.39,1.02s.56,1.02,1.39,1.02,1.39-.41,1.39-1.02-.56-1.02-1.39-1.02ZM26.66,111.64v-.34h2.04v-.91h.46v.91h2.05v.34h-4.54Z"/>
        <path d="M35.81,118.14v-2.9h.46v.98h4.27v-.98h.45v2.9h-5.18ZM36.27,117.8h4.27v-1.25h-4.27v1.25ZM34.89,114.45v-.35h7.06v.35h-7.06ZM35.35,112.95c1.38-.22,2.83-1.09,2.83-2.16v-.28h.48v.28c0,1.05,1.44,1.94,2.82,2.16l-.16.34c-1.25-.21-2.37-.88-2.81-1.68l-.09-.16-.09.16c-.43.81-1.53,1.46-2.83,1.68l-.16-.34Z"/>
        <path d="M46.56,118.14v-2.63h5.25v2.63h-5.25ZM47.01,117.8h4.36v-1.95h-4.36v1.95ZM45.66,114.18v-.35h5.43l.02-.08c.24-1.03.24-1.8.24-2.41v-.1l-.1-.04h-4.64v-.35h5.19v.49c0,.64,0,1.36-.22,2.37l-.03.12h1.21v.35h-7.09Z"/>
        <path d="M59.81,118.25v-7.82h.46v7.82h-.46ZM53.98,116.32c1.17-.63,2.1-2.17,2.1-3.49v-1.22h-1.9v-.35h4.28v.35h-1.93v1.22c0,1.43,1.06,2.77,2.13,3.3l-.25.36c-.89-.45-1.66-1.36-2.01-2.39l-.1-.28-.09.28c-.35,1.1-1.11,2.11-1.97,2.59l-.27-.36Z"/>
        <path d="M62.19,118.97c.54-.28.84-.74.84-1.27v-.13l-.12.03s-.01,0-.02,0c-.3,0-.52-.14-.52-.43s.24-.43.47-.43c.35,0,.56.3.56.81,0,.73-.4,1.33-1.09,1.67l-.11-.25Z"/>
        <path d="M69.89,118.26v-2.79h-3.3v-.35h7.09v.35h-3.33v2.79h-.46ZM67.53,113.79v-2.92h5.2v2.92h-5.2ZM67.97,113.46h4.31v-2.24h-4.31v2.24Z"/>
        <path d="M76.1,118.08v-2.41h.46v2.06h4.67v.35h-5.13ZM80.41,116.04v-5.63h.46v2.43h1.21v.35h-1.21v2.84h-.46ZM75.24,114.6v-3.48h3.34v.34h-2.89v2.79h.1c1.48,0,2.45-.04,3.55-.26l.05.35c-1.14.22-2.13.26-3.64.26h-.51Z"/>
        <path d="M87.12,118.08v-2.28h.46v1.93h4.67v.35h-5.13ZM91.56,116.13v-3.11h-1.67v-.35h1.67v-2.23h.46v5.7h-.46ZM85.72,114.7c1.18-.47,1.99-1.56,1.99-2.69v-.56h-1.83v-.35h4.09v.35h-1.8v.55c0,1.05.78,2.07,1.92,2.52l-.22.34c-.83-.32-1.49-.96-1.83-1.76l-.1-.23-.09.24c-.32.89-1.01,1.6-1.91,1.95l-.24-.35Z"/>
        <path d="M100.08,118.26v-4.21h-1.33v3.8h-.42v-7.24h.42v3.08h1.33v-3.27h.43v7.83h-.43ZM93.87,116.2c1.1-.66,1.73-1.98,1.73-3.66v-.8h-1.6v-.35h3.54v.35h-1.51v.8c0,1.5.65,2.78,1.7,3.38l-.27.35c-.71-.42-1.25-1.17-1.53-2.13l-.1-.36-.09.36c-.26,1.09-.8,1.92-1.58,2.4l-.29-.35Z"/>
        <path d="M105.56,118.14v-2.63h5.25v2.63h-5.25ZM106.01,117.8h4.36v-1.95h-4.36v1.95ZM104.66,114.18v-.35h5.43l.02-.08c.24-1.03.24-1.8.24-2.41v-.1l-.1-.04h-4.64v-.35h5.19v.49c0,.64,0,1.36-.22,2.37l-.03.12h1.21v.35h-7.09Z"/>
        <path d="M118.81,118.25v-7.82h.46v7.82h-.46ZM112.98,116.32c1.17-.63,2.1-2.17,2.1-3.49v-1.22h-1.9v-.35h4.28v.35h-1.93v1.22c0,1.43,1.06,2.77,2.13,3.3l-.25.36c-.89-.45-1.66-1.36-2.01-2.39l-.1-.28-.09.28c-.35,1.1-1.11,2.11-1.97,2.59l-.27-.36Z"/>
        <path d="M121.19,118.97c.54-.28.84-.74.84-1.27v-.13l-.12.03s-.01,0-.02,0c-.3,0-.52-.14-.52-.43s.24-.43.47-.43c.35,0,.56.3.56.81,0,.73-.4,1.33-1.09,1.67l-.11-.25Z"/>
        <path d="M131.09,118.26v-7.82h.46v3.27h1.35v.36h-1.35v4.2h-.46ZM125.52,116.32c1.16-.64,2.09-2.17,2.09-3.49v-1.22h-1.85v-.35h4.11v.35h-1.81v1.22c0,1.24.9,2.69,2.03,3.29l-.25.36c-.84-.45-1.56-1.37-1.9-2.41l-.1-.29-.09.29c-.35,1.12-1.11,2.13-1.96,2.6l-.27-.36Z"/>
        <path d="M139.41,118.26v-2.21h-4.53v-.35h4.99v2.56h-.46ZM139.41,115.06v-4.63h.46v2.14h1.2v.35h-1.2v2.14h-.46ZM133.89,114.5c1.19-.47,1.98-1.53,1.98-2.67v-.47h-1.83v-.35h4.1v.35h-1.81v.47c0,1.07.76,2.07,1.92,2.52l-.22.35c-.84-.33-1.5-.96-1.82-1.76l-.1-.24-.09.24c-.32.88-1.01,1.57-1.89,1.92l-.24-.35Z"/>
        <path d="M147.92,118.25v-2.88h-3.28v-.35h7.05v.35h-3.31v2.88h-.46ZM145.12,113.76c1.36-.24,2.77-1.16,2.77-2.29v-.1l-.1-.08h-2.47v-.35h5.65v.35h-2.55v.1c0,1.17,1.4,2.13,2.76,2.37l-.16.33c-1.28-.25-2.37-.95-2.79-1.81l-.09-.18-.09.18c-.41.86-1.5,1.56-2.78,1.81l-.16-.33Z"/>
        <path d="M156.46,118.24c-1.58,0-2.53-.51-2.53-1.37s.95-1.36,2.53-1.36,2.52.51,2.52,1.36-.94,1.37-2.52,1.37ZM156.46,115.83c-1.3,0-2.08.39-2.08,1.03s.76,1.04,2.08,1.04,2.07-.39,2.07-1.04-.77-1.03-2.07-1.03ZM158.44,115.08v-4.65h.46v2.06h1.2v.35h-1.2v2.23h-.46ZM152.92,114.53c1.18-.47,1.97-1.53,1.97-2.66v-.48h-1.82v-.35h4.09v.35h-1.81v.47c0,1.05.77,2.02,1.92,2.44l-.21.35c-.85-.31-1.5-.91-1.83-1.7l-.1-.23-.08.24c-.31.87-1,1.57-1.9,1.92l-.22-.35Z"/>
        <path d="M164.56,118.14v-2.63h5.25v2.63h-5.25ZM165.01,117.8h4.36v-1.95h-4.36v1.95ZM163.66,114.18v-.35h5.43l.02-.08c.24-1.03.24-1.8.24-2.41v-.1l-.1-.04h-4.64v-.35h5.19v.49c0,.64,0,1.36-.22,2.37l-.03.12h1.21v.35h-7.09Z"/>
        <path d="M177.81,118.25v-7.82h.46v7.82h-.46ZM171.98,116.32c1.17-.63,2.1-2.17,2.1-3.49v-1.22h-1.9v-.35h4.28v.35h-1.93v1.22c0,1.43,1.06,2.77,2.13,3.3l-.25.36c-.89-.45-1.66-1.36-2.01-2.39l-.1-.28-.09.28c-.35,1.1-1.11,2.11-1.97,2.59l-.27-.36Z"/>
      </g>
      <g>
        <path d="M18.44,130.47c-.03-.08-.06-.17-.09-.25.23,0,.43,0,.59,0,.14,0,.24,0,.3,0,.11,0,.25-.04.25-.23v-1.53h-3.06v-.25h6.41v.25h-3.03v1.53c0,.27-.06.34-.24.39-.21.07-.57.07-1.11.07ZM16.44,130.15c.52-.31,1.02-.74,1.34-1.15l.28.09c-.4.52-.96.97-1.39,1.25-.07-.05-.15-.12-.23-.18ZM22.43,130.32c-.33-.36-.93-.85-1.41-1.19l.21-.13c.51.35,1.1.83,1.44,1.17l-.24.16ZM17.3,127.37v-.23h4.74v.23h-4.74ZM21.07,126.67v-1.77l-.18.27c-.36.53-.84,1.04-1.28,1.34-.05-.06-.11-.13-.17-.19.51-.31,1.07-.88,1.43-1.45l.09-.15h-1.25v-.23h1.37v-.79h.28v.79h1.35v.23h-1.28l.1.15c.37.56.9,1.11,1.38,1.43-.06.06-.13.13-.18.2-.39-.3-.85-.8-1.19-1.3l-.18-.26v1.72h-.28ZM17.79,126.67v-1.71l-.18.29c-.33.53-.76,1.01-1.15,1.31-.05-.07-.11-.14-.17-.2.49-.33,1-.9,1.33-1.49l.08-.15h-1.2v-.23h1.3v-.79h.28v.79h1.07v.23h-1.07v.15l.05.11c.25.16.84.59,1.1.78l-.15.19c-.2-.19-.56-.48-.84-.69l-.16-.12v1.52h-.28Z"/>
        <polygon points="23.93 130.08 23.93 129.78 25 129.78 25 125.39 25.32 125.39 25.32 129.78 27.37 129.78 27.37 123.73 27.69 123.73 27.69 126.28 30.21 126.28 30.21 126.58 27.69 126.58 27.69 129.78 30.54 129.78 30.54 130.08 23.93 130.08"/>
        <path d="M36.93,129.88l-.56-1.76h-2.23l-.57,1.76h-.42l1.84-5.39h.55l1.85,5.39h-.46ZM35.14,124.89c-.18.66-.37,1.26-.57,1.89l-.33,1.04h2.03l-.33-1.04c-.21-.63-.39-1.24-.58-1.89l-.02-.07h-.15s-.05.07-.05.07Z"/>
        <rect x="38.43" y="124.49" width=".44" height="5.39"/>
        <path d="M44.06,130.46c-.03-.09-.08-.19-.12-.29.26,0,.5.01.69.01s.34,0,.4-.01c.14,0,.29-.04.29-.25v-1.66h-3.08v-.28h3.08v-.57h.17c.44-.2.87-.46,1.23-.73l.24-.18h-3.46v-.26h3.68l.13-.03.16.14c-.45.44-1.13.89-1.78,1.19l-.06.03v.4h3.11v.28h-3.11v1.66c0,.29-.06.39-.28.45-.25.07-.67.08-1.29.08ZM48.3,126.44v-1.21h-5.62v1.21h-.28v-1.47h1.25l-.07-.14c-.13-.25-.36-.6-.6-.9l.24-.11c.26.29.51.64.63.89l-.15.08.05.19h1.75l-.04-.13c-.1-.31-.31-.73-.52-1.06l.25-.1c.22.33.44.72.54,1.01l-.23.09.04.19h1.38c.36-.37.69-.84.89-1.2l.32.11c-.23.32-.48.65-.72.92l-.14.16h1.33v1.47h-.29Z"/>
        <path d="M54.62,130.4c-.22,0-.47-.01-.71-.03-.01-.09-.04-.19-.09-.28.45.03.84.03,1.01.03.16,0,.28-.03.38-.16.26-.29.32-1.51.38-5.3v-.1s-5.29,0-5.29,0v-.29h5.6v.2c-.05,3.9-.11,5.26-.37,5.62-.14.19-.28.27-.54.29-.11.01-.24.02-.39.02ZM50.23,129.04c1.02-.31,2.67-.86,4.36-1.45l.06.28c-1.52.53-3.16,1.1-4.31,1.49l-.12-.32ZM53.11,127.13c-.45-.42-1.24-1.03-1.87-1.47l.19-.19c.65.44,1.46,1.02,1.9,1.42l-.22.24Z"/>
        <path d="M58.04,130.44c.59-.28.89-.68.93-1.21v-.12s-.11.02-.11.02c-.04,0-.09.01-.13.01-.21,0-.44-.11-.44-.42s.23-.43.45-.43c.47,0,.52.52.52.75,0,.72-.41,1.3-1.13,1.58l-.08-.18Z"/>
        <path d="M67.2,130.47c-.03-.08-.06-.17-.09-.25.23,0,.43,0,.59,0,.14,0,.24,0,.3,0,.11,0,.25-.04.25-.23v-1.53h-3.06v-.25h6.41v.25h-3.03v1.53c0,.27-.06.34-.24.39-.21.07-.57.07-1.11.07ZM65.2,130.15c.52-.31,1.02-.74,1.34-1.15l.28.09c-.4.52-.96.97-1.39,1.25-.07-.05-.15-.12-.23-.18ZM71.19,130.32c-.33-.36-.93-.85-1.41-1.19l.21-.13c.51.35,1.1.83,1.44,1.17l-.24.16ZM66.06,127.37v-.23h4.74v.23h-4.74ZM69.83,126.67v-1.77l-.18.27c-.36.53-.84,1.04-1.28,1.34-.05-.06-.11-.13-.17-.19.51-.31,1.07-.88,1.43-1.45l.09-.15h-1.25v-.23h1.37v-.79h.28v.79h1.35v.23h-1.28l.1.15c.37.56.9,1.11,1.38,1.43-.06.06-.13.13-.18.2-.39-.3-.85-.8-1.19-1.3l-.18-.26v1.72h-.28ZM66.54,126.67v-1.71l-.18.29c-.33.53-.76,1.01-1.15,1.31-.05-.07-.11-.14-.17-.2.49-.33,1-.9,1.33-1.49l.08-.15h-1.2v-.23h1.3v-.79h.28v.79h1.07v.23h-1.07v.15l.05.11c.25.16.84.59,1.1.78l-.15.19c-.2-.19-.56-.48-.84-.69l-.16-.12v1.52h-.28Z"/>
        <polygon points="72.69 130.08 72.69 129.78 73.76 129.78 73.76 125.39 74.08 125.39 74.08 129.78 76.12 129.78 76.12 123.73 76.45 123.73 76.45 126.28 78.97 126.28 78.97 126.58 76.45 126.58 76.45 129.78 79.3 129.78 79.3 130.08 72.69 130.08"/>
        <path d="M83.46,130.46v-3.15l-.18.25c-.7.98-1.75,1.91-2.76,2.43-.07-.08-.15-.19-.23-.27,1.06-.5,2.16-1.43,2.84-2.42l.11-.15h-2.82v-.31h3.04v-1.57h-2.5v-.3h2.5v-1.26h.33v1.26h2.58v.3h-2.58v1.57h3.1v.31h-2.87l.11.16c.69.97,1.82,1.93,2.86,2.42-.08.08-.16.18-.22.27-.99-.51-2.08-1.48-2.8-2.47l-.18-.25v3.19h-.33Z"/>
        <path d="M90.38,130.24v-.28h1.99v-2.14h-1.53v-.28h3.45v.28h-1.62v2.14h1.98v.28h-4.28ZM87.9,129.63c.44-.09,1.01-.23,1.62-.37l.72-.17.03.25s-1.93.51-2.3.61l-.07-.31ZM88.03,128.42c-.03-.09-.07-.2-.1-.29.16-.08.33-.26.54-.49.17-.17.5-.59.85-1.08l.13-.19-.23.03c-.78.1-1.09.16-1.24.2-.03-.09-.07-.21-.11-.31.14-.08.26-.26.4-.46.14-.21.71-1.14,1.07-2.1l.3.14c-.35.78-.8,1.58-1.26,2.22l-.13.18,1.32-.15c.22-.27.39-.53.53-.79l.28.17c-.56.88-1.15,1.67-1.71,2.27l-.2.22,1.75-.32c0,.08,0,.18,0,.25-1.57.32-2,.42-2.2.49ZM90.53,127.03c-.05-.08-.11-.17-.18-.25,1.05-.38,2.39-1.16,3.14-2.25l.11-.15h-2.82v-.28h2.96l.12-.03.21.14c-.28.53-.7,1.03-1.23,1.49l-.12.1.15.06c.67.29,1.37.63,1.78.88l-.18.25c-.45-.29-1.22-.69-1.93-1-.66.41-1.3.75-2,1.03Z"/>
        <path d="M95.75,130.46c-.02-.08-.05-.18-.08-.27.14,0,.27,0,.37,0s.21,0,.21,0c.15,0,.23-.08.23-.24v-2.28l-.95.31-.08-.3c.24-.07.52-.15.82-.24l.21-.07v-1.84h-.98v-.28h.98v-1.55h.28v1.55h.84v.28h-.84v1.75l.83-.26.04.28-.87.29v2.38c0,.29-.07.37-.19.43-.12.06-.33.08-.7.08h-.12ZM102.05,130.46c-.8-.19-1.46-.47-2.02-.88l-.05-.04-.06.04c-.58.37-1.29.66-2.11.85-.03-.08-.08-.17-.13-.26.75-.16,1.41-.4,1.96-.72l.12-.07-.1-.09c-.42-.39-.76-.86-1.01-1.39l.21-.07-.02-.11.03.06c.24.52.6.99,1.07,1.38l.06.05.06-.05c.53-.38.93-.85,1.19-1.39l.07-.14h-3.02v-.24h3.13l.09-.03.16.09c-.28.73-.73,1.35-1.35,1.83l-.11.09.12.08c.53.34,1.17.58,1.89.74-.06.08-.12.18-.17.27ZM101.88,127.08v-.8h-3.69v.79h-.26v-1.03h2.99l.03-.15c.23-.35.52-.87.71-1.29l.27.09c-.21.37-.49.85-.74,1.19l-.12.16h1.1v1.04h-.28ZM98.67,125.74c-.08-.25-.22-.58-.38-.85l.21-.07c.17.27.32.59.4.84l-.23.08ZM100.02,125.65c-.04-.26-.14-.61-.26-.91l.22-.05c.13.29.23.64.28.89l-.24.06ZM98.08,124.43c-.02-.06-.04-.13-.06-.2.75-.05,2.63-.2,3.66-.47l.18.21c-1.18.3-2.96.42-3.77.46Z"/>
        <path d="M105.89,130.44c-.06-.09-.13-.19-.2-.28.75-.33,1.42-.83,1.98-1.5l.05-.06-.04-.06c-.6-.86-1-1.93-1.3-3.45l.26-.06c.27,1.39.64,2.38,1.19,3.2l.08.12.08-.11c.67-.93,1.14-2.08,1.38-3.42l.02-.12h-3.36v-.29h3.39l.1-.03.19.07c-.26,1.66-.78,3.03-1.56,4.1l-.05.06.05.06c.45.55,1.03,1.04,1.77,1.49-.08.08-.16.18-.23.27-.72-.46-1.29-.95-1.72-1.48l-.07-.09-.08.09c-.55.63-1.2,1.13-1.95,1.49ZM104.53,130.44v-3.58l-.19-.03c-.3.88-.67,1.65-1.03,2.15-.06-.09-.12-.19-.19-.27.53-.69,1.07-1.88,1.34-2.99l.03-.12h-1.25v-.27h1.29v-1.63h.3v1.63h1.07v.27h-1.07v.95c.29.27.94.87,1.19,1.1l-.17.27c-.2-.25-.56-.63-.84-.92l-.17-.17v3.61h-.3Z"/>
        <path d="M111.8,130.49v-4.73l-.18.25c-.25.36-.51.67-.77.94-.05-.1-.12-.22-.19-.32.74-.71,1.46-1.81,1.9-2.92l.28.09c-.2.48-.45.98-.75,1.48v5.21h-.3ZM112.87,130.47c-.04-.08-.11-.17-.17-.25.67-.2,1.17-.45,1.54-.79l.09-.08-.1-.07c-.43-.31-.78-.69-1.05-1.12l.23-.07c.24.38.58.72,1,1.02l.08.06.06-.08c.24-.34.39-.75.45-1.28v-.11s-1.87,0-1.87,0v-1.87h1.91v-.98h-2.15v-.27h2.15v-.84h.3v.84h2.23v.27h-2.23v.98h1.97v1.87h-2v.09c-.08.6-.24,1.06-.51,1.45l-.06.09.1.05c.73.4,1.64.68,2.71.82-.06.09-.12.19-.17.27-1.09-.17-2.01-.47-2.74-.91l-.07-.04-.05.06c-.38.38-.91.68-1.64.91ZM115.33,126.97c0,.13,0,.26,0,.38v.1s1.69,0,1.69,0v-1.4h-1.68v.92ZM113.4,127.45h1.63v-.09c.01-.14.01-.26.01-.4v-.91h-1.64v1.4Z"/>
        <path d="M118.65,130.45c-.07-.07-.16-.15-.23-.21.77-.93.87-2.21.87-3.34v-2.65h5.33v5.59c0,.34-.1.44-.27.5-.19.07-.51.08-.94.08h-.36c-.02-.09-.06-.2-.1-.29.22,0,.42,0,.6,0,.22,0,.39,0,.47,0,.2-.01.29-.1.29-.3v-1.72h-2.33v2.28h-.31v-2.28h-2.15v.09c-.14.97-.42,1.71-.87,2.25ZM121.98,127.83h2.33v-1.53h-2.33v1.53ZM119.59,126.9c0,.26,0,.54-.03.82v.11s2.12,0,2.12,0v-1.53h-2.09v.6ZM121.98,126.02h2.33v-1.49h-2.33v1.49ZM119.59,126.02h2.09v-1.49h-2.09v1.49Z"/>
        <path d="M126.74,130.44c.59-.28.89-.68.93-1.21v-.12s-.11.02-.11.02c-.04,0-.09.01-.13.01-.21,0-.44-.11-.44-.42s.23-.43.45-.43c.47,0,.52.52.52.75,0,.72-.41,1.3-1.13,1.58l-.08-.18Z"/>
        <path d="M135.9,130.47c-.03-.08-.06-.17-.09-.25.23,0,.43,0,.59,0,.14,0,.24,0,.3,0,.11,0,.25-.04.25-.23v-1.53h-3.06v-.25h6.41v.25h-3.03v1.53c0,.27-.06.34-.24.39-.21.07-.57.07-1.11.07ZM133.9,130.15c.52-.31,1.02-.74,1.34-1.15l.28.09c-.4.52-.96.97-1.39,1.25-.07-.05-.15-.12-.23-.18ZM139.88,130.32c-.33-.36-.93-.85-1.41-1.19l.21-.13c.51.35,1.1.83,1.44,1.17l-.24.16ZM134.75,127.37v-.23h4.74v.23h-4.74ZM138.52,126.67v-1.77l-.18.27c-.36.53-.84,1.04-1.28,1.34-.05-.06-.11-.13-.17-.19.51-.31,1.07-.88,1.43-1.45l.09-.15h-1.25v-.23h1.37v-.79h.28v.79h1.35v.23h-1.28l.1.15c.37.56.9,1.11,1.38,1.43-.06.06-.13.13-.18.2-.39-.3-.85-.8-1.19-1.3l-.18-.26v1.72h-.28ZM135.24,126.67v-1.71l-.18.29c-.33.53-.76,1.01-1.15,1.31-.05-.07-.11-.14-.17-.2.49-.33,1-.9,1.33-1.49l.08-.15h-1.2v-.23h1.3v-.79h.28v.79h1.07v.23h-1.07v.15l.05.11c.25.16.84.59,1.1.78l-.15.19c-.2-.19-.56-.48-.84-.69l-.16-.12v1.52h-.28Z"/>
        <polygon points="141.38 130.08 141.38 129.78 142.45 129.78 142.45 125.39 142.77 125.39 142.77 129.78 144.82 129.78 144.82 123.73 145.15 123.73 145.15 126.28 147.67 126.28 147.67 126.58 145.15 126.58 145.15 129.78 148 129.78 148 130.08 141.38 130.08"/>
        <path d="M150.17,130.45v-3.41h4.34v3.38h-.31v-.25h-3.72v.27h-.3ZM150.47,129.98h3.72v-.8h-3.72v.8ZM150.47,129h3.72v-.79h-3.72v.79ZM150.47,128.03h3.72v-.78h-3.72v.78ZM149.66,126.31v-2.26h5.38v2.26h-5.38ZM149.95,126.12h4.78v-.85h-4.78v.85ZM149.95,125.09h4.78v-.84h-4.78v.84Z"/>
        <path d="M156.87,130.42c-.04-.08-.1-.17-.17-.26,1.61-.44,1.99-1.28,2.11-2.73h.33c-.14,1.59-.55,2.5-2.27,2.98ZM161.49,130.39c-.59,0-.72-.12-.72-.66v-2.34h.31v2.34c0,.33.14.38.47.38h1.03c.41,0,.45-.29.49-1.26.09.05.19.09.27.11-.07,1.25-.22,1.43-.72,1.43h-1.12ZM162.79,127.38c-.12-.17-.28-.35-.46-.54-1.96.07-3.96.15-5.28.19l-.02-.31s.71-.02,1.07-.03c.34-.47.64-1.08.87-1.63l.06-.14h-2.24v-.28h3.02v-.94h.31v.94h3.06v.28h-3.76l-.03.05c-.33.67-.61,1.17-.84,1.54l-.1.16h.18c.98-.04,2.09-.07,3.18-.12h.23s-.17-.17-.17-.17c-.3-.29-.65-.58-1-.86l.23-.15c.77.58,1.54,1.31,1.95,1.83l-.27.18Z"/>
        <path d="M167.03,130.45c-.02-.08-.05-.17-.09-.25.21,0,.4,0,.55,0,.13,0,.23,0,.28,0,.12,0,.24-.04.24-.22v-2.09h-1.86v-2.51h1.58l.02-.07c.08-.25.15-.54.2-.79l.02-.12h-2.74v1.82c0,1.86-.24,3.23-.73,4.17-.08-.06-.18-.12-.27-.16.62-1.16.7-2.68.7-4.01v-2.08h5.92v.27h-2.48l-.02.07c-.08.27-.18.54-.26.78l-.05.13h2.17v2.51h-1.91v2.09c0,.28-.07.35-.21.39-.2.07-.55.07-1.07.07ZM166.44,127.68h3.46v-.95h-3.46v.95ZM166.44,126.54h3.46v-.94h-3.46v.94ZM165.55,130.11c-.07-.05-.16-.12-.24-.17.53-.37,1.04-.9,1.37-1.4l.28.08c-.37.55-.9,1.11-1.41,1.49ZM170.69,130.06c-.31-.45-.92-1.02-1.41-1.42l.21-.14c.52.41,1.13.97,1.45,1.39l-.25.17Z"/>
        <path d="M176.73,130.43c-.02-.09-.06-.19-.1-.28.21,0,1.01,0,1.01,0,.13,0,.3-.04.3-.3v-6.04h.31v6.03c0,.33-.09.43-.27.5-.17.06-.47.09-1.03.09h-.21ZM173.45,130.35c-.67,0-.82-.13-.82-.68v-3.18h2.53s0,.08,0,.1c-.06,1.1-.13,1.77-.3,1.95-.09.1-.18.14-.36.15-.08,0-.19.01-.31.01-.1,0-.21,0-.33,0-.01-.08-.03-.16-.06-.24.22.02.42.02.51.02.11,0,.2,0,.29-.1.09-.11.18-.36.26-1.54v-.11s-1.92,0-1.92,0v2.93c0,.37.15.44.56.44h1.38c.45,0,.51-.3.54-1.02.08.04.17.08.26.1-.07,1.01-.24,1.16-.77,1.16h-1.45ZM176.45,128.58v-3.99h.28v3.99h-.28ZM172.04,126.57c-.06-.07-.15-.14-.22-.21.88-.67,1.64-1.63,2.08-2.62l.27.08c-.03.07-.13.29-.13.29l.05.05c.55.57,1.32,1.41,1.73,1.97l-.22.2c-.34-.51-.97-1.25-1.59-1.9l-.09-.1-.07.12c-.45.81-1.09,1.55-1.8,2.12Z"/>
      </g>
      <g>
        <g>
          <path d="M93.92,174.73h.24l1.87,5.22h-.29l-1.09-3.13c-.22-.63-.4-1.17-.6-1.82h-.03c-.19.65-.38,1.19-.6,1.82l-1.1,3.13h-.27l1.86-5.22ZM92.86,177.87h2.33v.23h-2.33v-.23Z"/>
          <path d="M96.85,179.53v-5.29h.26v5.33c0,.16.06.24.16.24.03,0,.06,0,.14-.01l.05.22c-.06.01-.11.03-.22.03-.24,0-.39-.15-.39-.52Z"/>
          <path d="M98.68,179.53v-5.29h.26v5.33c0,.16.06.24.16.24.03,0,.06,0,.14-.01l.05.22c-.06.01-.11.03-.22.03-.24,0-.39-.15-.39-.52Z"/>
          <path d="M102.08,176.16h.22l.04.71h.01c.25-.46.62-.81,1.07-.81.13,0,.24.01.37.08l-.06.24c-.12-.05-.19-.06-.34-.06-.34,0-.75.27-1.05,1.01v2.62h-.26v-3.79Z"/>
          <path d="M104.4,174.91c0-.16.11-.27.26-.27s.26.12.26.27c0,.19-.12.3-.26.3-.15,0-.26-.11-.26-.3ZM104.52,176.16h.26v3.79h-.26v-3.79Z"/>
          <path d="M105.95,180.74c0-.33.22-.68.58-.93v-.03c-.19-.12-.34-.32-.34-.6,0-.35.25-.58.42-.7v-.03c-.24-.21-.48-.58-.48-1.04,0-.77.58-1.34,1.3-1.34.22,0,.39.05.5.09h1.27v.24h-.91c.27.22.45.58.45,1.01,0,.75-.57,1.34-1.3,1.34-.22,0-.47-.06-.64-.17-.17.14-.33.32-.33.58,0,.29.16.52.74.52h.84c.83,0,1.21.27,1.21.85,0,.64-.68,1.27-1.75,1.27-.96,0-1.55-.42-1.55-1.06ZM108.98,180.56c0-.45-.32-.62-.91-.62h-.86c-.05,0-.25-.01-.46-.06-.37.25-.52.57-.52.85,0,.5.47.85,1.29.85.91,0,1.47-.52,1.47-1.01ZM108.46,177.41c0-.68-.47-1.1-1.04-1.1s-1.03.42-1.03,1.1.48,1.11,1.03,1.11,1.04-.45,1.04-1.11Z"/>
          <path d="M110.09,174.24h.26v2.54c.4-.41.8-.71,1.32-.71.78,0,1.14.47,1.14,1.45v2.44h-.26v-2.4c0-.83-.27-1.24-.91-1.24-.47,0-.81.25-1.29.75v2.9h-.26v-5.71Z"/>
          <path d="M114.3,178.95v-2.55h-.6v-.2l.6-.04.03-1.11h.22v1.11h1.12v.24h-1.12v2.58c0,.49.11.83.66.83.14,0,.35-.06.48-.12l.09.22c-.22.08-.46.14-.59.14-.7,0-.89-.44-.89-1.1Z"/>
          <path d="M116.13,179.53l.17-.21c.32.27.67.49,1.23.49.63,0,.96-.37.96-.8,0-.5-.5-.72-.95-.88-.58-.21-1.19-.42-1.19-1.08,0-.53.41-.99,1.19-.99.38,0,.78.16,1.05.39l-.15.19c-.25-.19-.52-.35-.91-.35-.63,0-.91.36-.91.73,0,.45.43.63.88.8.6.23,1.26.42,1.26,1.16,0,.56-.44,1.05-1.24,1.05-.57,0-1.04-.24-1.38-.52Z"/>
          <path d="M121.37,176.16h.22l.04.71h.01c.25-.46.62-.81,1.07-.81.13,0,.24.01.37.08l-.06.24c-.12-.05-.19-.06-.34-.06-.34,0-.75.27-1.05,1.01v2.62h-.26v-3.79Z"/>
          <path d="M123.47,178.07c0-1.24.79-2,1.63-2s1.43.63,1.43,1.75c0,.08,0,.16-.01.26h-2.78c0,1,.58,1.73,1.47,1.73.43,0,.75-.14,1.04-.35l.12.22c-.29.17-.61.36-1.17.36-.96,0-1.73-.74-1.73-1.98ZM126.28,177.84c0-1.03-.47-1.53-1.18-1.53s-1.28.58-1.36,1.53h2.54Z"/>
          <path d="M127.1,179.53l.17-.21c.32.27.67.49,1.23.49.63,0,.96-.37.96-.8,0-.5-.5-.72-.95-.88-.58-.21-1.19-.42-1.19-1.08,0-.53.41-.99,1.19-.99.38,0,.78.16,1.05.39l-.15.19c-.25-.19-.52-.35-.91-.35-.63,0-.91.36-.91.73,0,.45.43.63.88.8.6.23,1.26.42,1.26,1.16,0,.56-.44,1.05-1.24,1.05-.57,0-1.04-.24-1.38-.52Z"/>
          <path d="M130.42,178.07c0-1.24.79-2,1.63-2s1.43.63,1.43,1.75c0,.08,0,.16-.01.26h-2.78c0,1,.58,1.73,1.47,1.73.43,0,.75-.14,1.04-.35l.12.22c-.29.17-.61.36-1.17.36-.96,0-1.73-.74-1.73-1.98ZM133.24,177.84c0-1.03-.47-1.53-1.18-1.53s-1.28.58-1.36,1.53h2.54Z"/>
          <path d="M134.54,176.16h.22l.04.71h.01c.25-.46.62-.81,1.07-.81.13,0,.24.01.37.08l-.06.24c-.12-.05-.19-.06-.34-.06-.34,0-.76.27-1.05,1.01v2.62h-.26v-3.79Z"/>
          <path d="M136.32,176.16h.29l.89,2.44c.13.37.27.75.4,1.08h.03c.13-.33.27-.71.4-1.08l.9-2.44h.27l-1.42,3.79h-.31l-1.44-3.79Z"/>
          <path d="M139.99,178.07c0-1.24.79-2,1.63-2s1.43.63,1.43,1.75c0,.08,0,.16-.01.26h-2.78c0,1,.58,1.73,1.47,1.73.43,0,.75-.14,1.04-.35l.12.22c-.29.17-.61.36-1.17.36-.96,0-1.73-.74-1.73-1.98ZM142.81,177.84c0-1.03-.47-1.53-1.18-1.53s-1.28.58-1.36,1.53h2.54Z"/>
          <path d="M143.78,178.07c0-1.22.78-2,1.7-2,.46,0,.78.17,1.16.47l-.02-.71v-1.59h.26v5.71h-.22l-.04-.5h-.01c-.32.32-.74.6-1.27.6-.95,0-1.57-.7-1.57-1.98ZM146.62,179.16v-2.33c-.42-.37-.76-.52-1.16-.52-.8,0-1.41.78-1.41,1.76,0,1.04.48,1.74,1.32,1.74.44,0,.83-.24,1.25-.65Z"/>
          <path d="M148.17,179.74c0-.21.14-.32.29-.32s.29.12.29.32c0,.19-.14.31-.29.31s-.29-.12-.29-.31Z"/>
        </g>
        <path d="M38.3,162.9c0-1.75,1.27-2.88,2.77-2.88s2.78,1.13,2.78,2.88-1.27,2.9-2.78,2.9-2.77-1.15-2.77-2.9ZM43.58,162.9c0-1.58-1.17-2.65-2.51-2.65s-2.5,1.07-2.5,2.65,1.16,2.68,2.5,2.68,2.51-1.08,2.51-2.68ZM39.61,162.9c0-1.01.74-1.63,1.55-1.63.46,0,.76.2,1.04.48l-.17.19c-.28-.25-.52-.4-.88-.4-.71,0-1.23.53-1.23,1.35,0,.89.48,1.46,1.21,1.46.43,0,.75-.21,1.04-.46l.14.21c-.32.29-.63.52-1.2.52-.81,0-1.5-.63-1.5-1.73Z"/>
      </g>
      <g>
        <path d="M96.87,21.35c0-.28.19-.43.39-.43.2,0,.39.15.39.43,0,.26-.19.41-.39.41s-.39-.15-.39-.41ZM97.08,15.21v-.67h.36v.67l-.04,4.6h-.28l-.04-4.6Z"/>
        <path d="M104.8,25.18h-15.08c-.73,0-1.37-.38-1.74-1s-.36-1.38,0-2.01l7.54-13.06c.36-.63,1.01-1,1.74-1s1.38.38,1.74,1l7.54,13.06c.36.63.36,1.38,0,2.01s-1.01,1-1.74,1ZM95.73,9.22l-7.54,13.06c-.32.55-.32,1.22,0,1.77.32.55.89.88,1.53.88h15.08c.64,0,1.21-.33,1.53-.88.32-.55.32-1.22,0-1.77l-7.54-13.06c-.32-.55-.89-.88-1.53-.88s-1.21.33-1.53.88h0Z"/>
      </g>
      <g>
        <g>
          <path d="M19.3,90.22h.35l2.74,7.66h-.42l-1.59-4.59c-.33-.93-.59-1.71-.88-2.67h-.04c-.28.96-.56,1.74-.89,2.67l-1.62,4.59h-.39l2.73-7.66ZM17.75,94.82h3.42v.34h-3.42v-.34Z"/>
          <path d="M24.73,90.22h.39v7.66h-.39v-7.66Z"/>
          <path d="M39.9,95.07v.32h-9.23v-.32h9.23ZM39.65,90.94v2.13h-.32v-1.82h-8.05v1.82h-.32v-2.13h8.69ZM31.96,89.26c.43.47.89,1.11,1.07,1.53l-.25.16c-.2-.42-.65-1.08-1.07-1.55l.25-.14ZM37.92,92.63v.31h-5.59v-.31h5.59ZM35.42,94.22v3.86c0,.31-.1.43-.38.49-.27.06-.81.06-1.84.06-.03-.08-.11-.2-.17-.31.95.02,1.59.02,1.82,0,.21-.02.25-.07.25-.23v-3.87h.32ZM34.72,89.08c.38.54.77,1.26.9,1.72l-.26.12c-.14-.47-.51-1.2-.89-1.74l.25-.09ZM37.92,92.63l.07-.02.22.16c-.71.68-1.88,1.31-2.85,1.69-.05-.06-.14-.15-.21-.2.96-.35,2.09-.98,2.69-1.55v-.07h.07ZM39.03,89.33c-.41.6-.99,1.31-1.45,1.77l-.22-.16c.44-.46,1.06-1.25,1.38-1.77l.28.16Z"/>
          <path d="M45.16,91.96l.06.27c-1,.4-2.03.82-2.83,1.14l-.16-.28c.75-.25,1.84-.7,2.92-1.13ZM46.09,89.72v.31h-3.63v-.31h3.63ZM43.31,90.33c.54.3,1.15.75,1.42,1.1l-.22.22c-.3-.35-.9-.82-1.44-1.12l.23-.2ZM50.09,94.33v4.33h-.32v-4.02h-5.76v4.02h-.32v-4.33h6.4ZM49.95,96.07v.32h-6.06v-.32h6.06ZM49.89,97.9v.31h-6.01v-.31h6.01ZM46.26,89.72v3.49c0,.21-.05.33-.24.39-.21.06-.59.05-1.29.05-.02-.08-.07-.2-.13-.28.59.01,1.03.01,1.17,0,.15,0,.18-.04.18-.16v-3.49h.31ZM46.99,93.44c-.2.4-.43.82-.63,1.11l-.25-.12c.2-.31.46-.81.58-1.12l.31.13ZM49.93,91.76l.05.26c-1.04.39-2.13.81-2.97,1.11l-.16-.27c.78-.26,1.93-.69,3.07-1.1ZM50.77,89.72v.31h-3.73v-.31h3.73ZM47.66,90.35c.54.26,1.15.7,1.45,1.03l-.23.23c-.28-.35-.89-.79-1.42-1.07l.21-.2ZM50.94,89.72v3.54c0,.22-.05.33-.25.39-.2.06-.6.06-1.31.06-.01-.08-.07-.21-.13-.31.6.02,1.06.02,1.2.01.15-.01.18-.03.18-.16v-3.54h.31Z"/>
          <path d="M59.63,89.62h.36l-3.68,10.11h-.37l3.69-10.11Z"/>
          <path d="M72.53,90.63v7.94h-.31v-7.63h-6.27v7.72h-.32v-8.02h6.89ZM72.37,93v.32h-6.52v-.32h6.52ZM72.37,95.34v.31h-6.52v-.31h6.52ZM72.37,97.68v.32h-6.52v-.32h6.52ZM69.12,89.17c-.21.56-.44,1.24-.69,1.68l-.25-.06c.21-.46.5-1.21.63-1.7l.31.08Z"/>
          <path d="M78.99,89.23c-.71,1.78-1.76,3.46-2.9,4.62-.04-.06-.16-.2-.23-.25,1.13-1.09,2.19-2.75,2.84-4.45l.3.08ZM77.8,91.37l.02.02v7.21h-.32v-6.92l.3-.31ZM81.29,89.34c-.6,1.65-1.49,3.21-2.46,4.27-.04-.04-.18-.15-.26-.2.98-1.02,1.86-2.58,2.42-4.15l.31.07ZM85.36,90.92v.32h-5.1l.15-.32h4.95ZM81.83,91.02v7.59h-.32v-7.59h.32ZM85.15,93.18v.31h-3.49v-.31h3.49ZM85.3,95.5v.32h-3.64v-.32h3.64Z"/>
          <path d="M91.57,89.61l.07-.02.21.12c-.81,2.02-2.7,3.5-4.34,4.2-.04-.07-.15-.19-.21-.25,1.59-.63,3.46-2.12,4.2-3.96v-.08h.06ZM90.95,93.15v1.79c0,1.42-.31,2.79-2.91,3.74-.04-.08-.14-.18-.21-.24,2.54-.91,2.81-2.21,2.81-3.49v-1.79h.32ZM96.42,95.3v.31h-8.43v-.31h8.43ZM91.6,89.61v.31h-3.3v-.31h3.3ZM88.55,90.49c.58.41,1.28,1,1.63,1.37l-.22.23c-.34-.38-1.03-.99-1.62-1.41l.21-.19ZM95.15,93.03v.32h-5.87v-.32h5.87ZM97.1,93.67c-.07.07-.17.18-.22.25-1.88-.79-3.57-2.59-4.4-4.67l.25-.08c.8,2.02,2.47,3.77,4.37,4.5ZM93.64,93.15v4.72c0,.28.08.35.52.35h1.62c.39,0,.44-.21.49-1.48.08.07.21.13.31.15-.04,1.31-.15,1.65-.78,1.65h-1.62c-.65,0-.83-.11-.83-.68v-4.71h.31ZM95.45,89.35c-.53.57-1.29,1.21-1.87,1.64l-.22-.18c.58-.42,1.38-1.13,1.83-1.64l.26.18ZM96.69,90.57c-.58.58-1.4,1.25-2.05,1.69l-.21-.18c.63-.43,1.51-1.18,2.01-1.7l.25.19Z"/>
          <path d="M108.52,91.17v.31h-9.32v-.31h9.32ZM106.93,95.4v3.19h-.31v-2.88h-5.58v2.91h-.31v-3.22h6.2ZM106.81,92.57v.31h-6.01v-.31h6.01ZM106.81,93.96v.32h-6.01v-.32h6.01ZM106.77,97.77v.31h-5.87v-.31h5.87ZM106.71,89.77v.31h-5.77v-.31h5.77Z"/>
        </g>
        <g>
          <path d="M18.19,80.76c-.36.91-.96,1.88-1.7,2.43l-.31-.16c.73-.53,1.35-1.45,1.68-2.36l.34.1ZM19.29,71.99c-.69,1.43-1.74,2.79-2.79,3.7-.06-.06-.21-.2-.31-.26,1.08-.88,2.11-2.18,2.75-3.54l.35.1ZM27.27,76.46v.37h-11.04v-.37h11.04ZM27.11,79.5v.38h-10.7v-.38h10.7ZM26.78,73.46v.38h-8.88l.26-.38h8.61ZM18.39,73.56v6.13h-.36v-6.13h.36ZM20.32,80.86c.16.71.29,1.63.3,2.16l-.36.05c-.01-.56-.11-1.49-.27-2.2h.34ZM20.66,73.56v6.06h-.37v-6.06h.37ZM22.93,80.77c.36.7.74,1.65.88,2.21l-.35.1c-.15-.59-.5-1.53-.86-2.24l.34-.08ZM23,73.56v6.13h-.36v-6.13h.36ZM25.37,73.56v6.13h-.36v-6.13h.36ZM25.53,80.61c.69.74,1.45,1.78,1.8,2.43l-.34.16c-.34-.65-1.1-1.7-1.79-2.45l.32-.14Z"/>
          <path d="M30.87,72.38v10.2h-.38v-10.2h.38ZM35.72,81.21v.36h-5.03v-.36h5.03ZM33.61,76.07c-.48,1.4-1.41,3.06-2.25,3.9-.06-.09-.18-.23-.25-.3.82-.77,1.75-2.34,2.21-3.71l.29.11ZM35.76,75.81v.38h-4.48v-.38h4.48ZM31.9,72.71c.32.7.61,1.61.69,2.21l-.35.13c-.07-.61-.34-1.53-.66-2.23l.33-.11ZM33.73,71.94v8.93h-.37v-8.93h.37ZM35.57,78.63l-.26.31c-.32-.39-1.49-1.53-1.89-1.86l.24-.19c.34.27,1.61,1.44,1.91,1.74ZM35.52,72.84c-.3.74-.7,1.66-1.03,2.25l-.29-.15c.32-.6.75-1.61.98-2.26l.34.16ZM36.92,73.27s-.06.1-.19.11v4.06c0,1.86-.21,4.18-1.84,5.9-.05-.09-.16-.21-.27-.26,1.58-1.64,1.75-3.84,1.75-5.64v-4.39l.55.21ZM40.97,72.44c-1.08.47-2.89.89-4.41,1.16-.03-.09-.09-.21-.14-.31,1.49-.27,3.3-.7,4.24-1.15l.31.3ZM41.3,76.18v.36h-4.7v-.36h4.7ZM39.6,76.4v6.79h-.36v-6.79h.36Z"/>
          <path d="M49.25,80.43v.36h-5.64v-.36h5.64ZM49.04,73.41v.38h-5.24v-.38h5.24ZM48.81,74.98v4.16h-4.7v-4.16h4.7ZM44.48,76.87h3.95v-1.53h-3.95v1.53ZM44.48,78.78h3.95v-1.55h-3.95v1.55ZM46.61,71.89v3.25h-.36v-3.25h.36ZM46.61,75.13v8.04h-.36v-8.04h.36ZM54.44,81.9v.36c-2.04.18-4.16.34-5.59.45l-.08-.38c1.35-.09,3.51-.26,5.66-.44ZM54.89,76.69v.36h-5.8v-.36h5.8ZM54.44,73.02v.36h-4.76v-.36h4.76ZM51.51,76.95c-.38,1.71-.95,4.11-1.44,5.54l-.35-.1c.49-1.43,1.06-3.9,1.38-5.55l.41.11ZM53.2,79.16c.74,1.21,1.44,2.81,1.71,3.88l-.37.14c-.25-1.05-.95-2.66-1.68-3.88l.34-.14Z"/>
          <path d="M68.56,74.77v.36h-11.04v-.36h11.04ZM63.84,81.41v.38h-6.19v-.38h6.19ZM63.73,76.24v.36h-5.86v-.36h5.86ZM63.49,73.06v.36h-5.41v-.36h5.41ZM63.35,77.49v3.01h-5.13v-3.01h5.13ZM58.59,78.81h4.4v-.95h-4.4v.95ZM58.59,80.13h4.4v-.96h-4.4v.96ZM60.94,75.28v2.31h-.36v-2.31h.36ZM60.94,77.68v5.49h-.36v-5.49h.36ZM60.96,71.88v3.09h-.38v-3.09h.38ZM67.83,76.08c-.89,2.78-2.54,5.54-4.79,7.06-.07-.07-.21-.19-.32-.26,2.25-1.49,3.89-4.2,4.76-6.93l.35.12ZM64.66,71.92c.03,6.59,1.13,10.86,3.04,10.86.41,0,.56-.6.64-2.23.09.08.25.14.35.16-.09,1.81-.29,2.44-1.03,2.44-2.29-.01-3.31-4.79-3.38-11.24h.37ZM66.15,72.17c.73.5,1.54,1.2,1.93,1.71l-.25.23c-.39-.5-1.2-1.24-1.93-1.73l.25-.21Z"/>
          <path d="M78.11,72.51h.43l-4.36,11.98h-.44l4.38-11.98Z"/>
          <path d="M86.78,75.98c-.64,1.91-1.99,4.16-3.15,5.28-.06-.09-.18-.23-.25-.3,1.13-1.05,2.48-3.21,3.08-5.1l.32.13ZM89.29,72.28c-1.3.53-3.63.93-5.54,1.16-.03-.1-.08-.23-.14-.31,1.88-.25,4.21-.65,5.35-1.14l.33.29ZM89.55,75.72v.36h-5.9v-.36h5.9ZM86.88,72.77v10.36h-.37v-10.36h.37ZM89.43,79.42l-.24.29c-.47-.48-2.04-1.89-2.59-2.3l.25-.23c.46.36,2.15,1.86,2.58,2.24ZM90.99,73.36v6.79h-.36v-6.79h.36ZM94.18,72.13v10.36c0,.41-.16.56-.44.63-.3.08-.88.08-2.03.06-.04-.09-.1-.24-.18-.35.96.03,1.71.01,1.94,0,.24-.01.32-.09.32-.32v-10.38h.38Z"/>
          <path d="M99.13,72.82v4.58c0,1.81-.19,4.18-1.64,5.83-.05-.09-.19-.21-.27-.26,1.4-1.6,1.55-3.8,1.55-5.56v-4.58h.36ZM107.41,78.8v.36h-8.55v-.36h8.55ZM107.47,72.82v.38h-8.5v-.38h8.5ZM107.41,75.77v.38h-8.44v-.38h8.44ZM103.14,72.93v10.15h-.38v-10.15h.38ZM107.61,72.82v9.55c0,.43-.13.6-.46.68-.32.06-1.03.06-2.25.05-.02-.09-.1-.26-.16-.37,1.05.02,1.93.01,2.18,0,.25-.01.34-.09.34-.34v-9.56h.36Z"/>
        </g>
        <g>
          <path d="M124.99,99.76h-.1l-.02-.09c-.22-1.01-.8-2.34-1.23-3.17l-.1-.19h.21c1.54.11,3.34.1,3.81.08.5-.03.54-.12.54-.38v-3.98h-11.84v-3.35h27.55v3.35h-11.75v4.08c0,1.86-.45,2.66-1.79,3.16-1.28.47-3,.51-5.29.51ZM123.94,96.57c.43.85.92,2.01,1.14,2.95,2.22,0,3.89-.04,5.12-.49,1.23-.46,1.63-1.17,1.63-2.93v-4.31h11.75v-2.87h-27.07v2.87h11.84v4.22c0,.48-.26.58-.76.62-.45.03-2.13.03-3.63-.05ZM118.48,99.41l-.07-.06c-.68-.62-2.09-1.74-2.87-2.26l-.17-.11.19-.09c2.24-1.12,4.37-2.84,5.55-4.5l.05-.07,3.72,1.16-.09.13c-1.45,2.09-3.89,4.35-6.22,5.75l-.08.04ZM115.84,97.01c.79.54,2,1.5,2.67,2.11,2.23-1.36,4.56-3.5,5.98-5.51l-3.24-1.01c-1.18,1.62-3.23,3.29-5.4,4.41ZM140.4,99.29l-.07-.08c-1.13-1.34-3.68-3.5-5.94-5.04l-.15-.11,3.18-1.87.06.04c2.02,1.3,4.8,3.39,6.21,4.9l.1.11-3.38,2.06ZM134.68,94.08c2.19,1.51,4.62,3.58,5.77,4.9l2.96-1.8c-1.41-1.46-4.05-3.45-6-4.71l-2.73,1.61ZM140.7,87.36h-21.06v-3.22h21.06v3.22ZM119.88,87.12h20.58v-2.75h-20.58v2.75ZM117.53,83.61l-.07-.1c-.53-.79-1.49-1.94-2.18-2.49l-.14-.11.16-.09c1.64-.91,3.41-2.56,4.77-4.44h-3.62v-3.22h4.72v-2.7h3.66v2.7h3.95v3.22h-3.67c1.36.77,3.63,2.2,4.3,2.64l.11.07-2.09,2.69-.1-.1c-.55-.55-1.56-1.36-2.5-2.11v3.91h-3.66v-3.43c-1.16,1.51-2.36,2.67-3.54,3.48l-.1.07ZM115.56,80.95c.68.58,1.52,1.59,2.03,2.33,1.19-.82,2.44-2.08,3.6-3.63l.21-.28v3.9h3.18v-4.17l.19.15c.95.75,2,1.59,2.62,2.18l1.77-2.28c-.84-.55-3.3-2.08-4.51-2.75l-.06-.03v-.22h3.95v-2.75h-3.95v-2.7h-3.18v2.7h-4.72v2.75h3.84l-.13.19c-1.35,1.93-3.15,3.64-4.83,4.61ZM142.29,83.55l-.1-.07c-1.1-.77-2.37-2.02-3.7-3.62v3.64h-3.72v-3.79c-1.28,1.59-2.67,2.86-4.01,3.71l-.1.06-.06-.1c-.51-.77-1.5-1.9-2.15-2.46l-.13-.12.16-.08c1.82-.91,3.75-2.56,5.1-4.34h-3.95v-3.22h5.16v-2.7h3.72v2.7h5.1v3.22h-4.18c1.49,1.75,3.51,3.46,5.21,4.38l.16.09-.14.11c-.78.62-1.79,1.77-2.27,2.49l-.07.1ZM135.02,83.27h3.24v-4.07l.21.26c1.35,1.65,2.65,2.95,3.76,3.76.49-.69,1.38-1.71,2.12-2.33-1.75-.99-3.81-2.75-5.29-4.54l-.16-.19h4.45v-2.75h-5.1v-2.7h-3.24v2.7h-5.16v2.75h4.18l-.14.19c-1.34,1.83-3.3,3.55-5.17,4.52.63.58,1.5,1.57,2,2.3,1.37-.88,2.77-2.21,4.07-3.86l.21-.27v4.23Z"/>
          <path d="M178.46,98.17h-28.61v-3.94h3.95v-17.4h4.12v17.4h5.42v-23.77h4.18v9.69h9.26v3.97h-9.26v10.11h10.94v3.94ZM150.09,97.93h28.13v-3.46h-10.94v-10.58h9.26v-3.49h-9.26v-9.69h-3.71v23.77h-5.89v-17.4h-3.65v17.4h-3.95v3.46Z"/>
        </g>
      </g>
      <rect x="15.91" y="142.49" width="162.71" height=".24"/>
    </g>
  </g>
</svg>